<?xml version="1.0" encoding="UTF-8"?>
<svg width="24px" height="24px" viewBox="0 0 24 24" version="1.1" xmlns="http://www.w3.org/2000/svg">
    <path d="M15.337 23.979l7.216-1.561s-2.604-17.613-2.625-17.73c-.018-.116-.114-.186-.186-.196-.072-.009-1.405-.099-1.405-.099s-1.005-.98-1.152-1.12c-.147-.14-.432-.097-.544-.065-.112.031-1.953.608-2.157.673-.204.064-2.889.907-4.011 1.258C9.359 5.481 8.255 3.32 6.646 3.32c-1.164 0-1.73.583-1.73 1.463 0 .734.456 1.811 1.668 1.811.456 0 .838-.065 1.189-.065-.043.13-.086.251-.129.373-1.189 3.612-2.936 8.905-2.936 8.905L15.337 23.98zM12.46 5.48c-.913.282-1.73.536-2.358.73.456-1.755 1.318-2.613 2.157-2.952.217.456.412 1.258.201 2.222z" fill="#95BF47"/>
</svg>
