<?xml version="1.0" encoding="UTF-8"?>
<svg width="24px" height="24px" viewBox="0 0 24 24" version="1.1" xmlns="http://www.w3.org/2000/svg">
    <path d="M13.976 9.15c-2.172-.806-3.356-1.426-3.356-2.409 0-.831.683-1.305 1.901-1.305 2.227 0 4.515.861 6.09 1.631l.89-5.494C18.252.984 15.697 0 12.165 0 9.667 0 7.589.654 6.104 1.872 4.56 3.147 3.757 4.992 3.757 7.218c0 4.039 2.467 5.76 6.476 7.219 2.585.831 3.47 1.426 3.47 2.338 0 .891-.712 1.394-2.044 1.394-1.769 0-4.515-.831-6.476-1.943l-.89 5.494c2.172 1.943 5.813 2.409 8.547 2.409 2.585 0 4.722-.654 6.236-1.872 1.544-1.275 2.347-3.12 2.347-5.346 0-4.128-2.525-5.849-6.447-7.249z" fill="#6772E5"/>
</svg>
