<?xml version="1.0" encoding="UTF-8"?>
<svg width="24px" height="24px" viewBox="0 0 24 24" version="1.1" xmlns="http://www.w3.org/2000/svg">
    <path d="M12 0C5.372 0 0 5.372 0 12s5.372 12 12 12 12-5.372 12-12S18.628 0 12 0zm5.178 15.355c-.508.645-1.64 1.4-3.161 1.4-2.413 0-4.37-1.936-4.37-4.331 0-2.394 1.957-4.33 4.37-4.33 1.522 0 2.653.754 3.161 1.4l-1.44 1.43c-.334-.44-.93-.716-1.721-.716-1.283 0-2.324 1.054-2.324 2.216 0 1.163 1.041 2.217 2.324 2.217.791 0 1.387-.275 1.721-.716l1.44 1.43z" fill="#FF4A00"/>
</svg>
